<svg width="258" height="37" viewBox="0 0 258 37" fill="none" xmlns="http://www.w3.org/2000/svg">
<path d="M6.68869 35.664C4.72069 35.664 2.51269 36 1.45669 36C0.784688 36 0.448688 35.808 0.448688 35.184C0.448688 28.56 8.89669 15.888 8.89669 9.84C8.89669 6.768 7.55269 6.288 6.11269 6.288C5.48869 6.288 4.72069 6.48 4.14469 6.48C3.85669 6.48 3.71269 6.288 3.71269 6.096C3.71269 5.904 3.85669 5.712 4.14469 5.712C5.77669 5.712 11.6327 6.048 14.8487 6.048C18.9767 6.048 22.8167 5.76 23.7767 5.76C24.1607 5.76 24.4487 5.952 24.4487 6.432C24.4487 13.44 28.9127 28.944 31.9847 35.04C32.1287 35.328 32.1767 35.472 32.1767 35.664C32.1767 35.856 32.0807 36 31.8887 36C30.5447 36 27.2327 35.76 23.7767 35.76C20.9447 35.76 14.4647 36 13.8407 36C13.5527 36 13.4567 35.856 13.4567 35.664C13.4567 35.472 13.6007 35.328 13.8407 35.328C14.1767 35.328 14.5607 35.472 14.9927 35.472C15.7607 35.472 16.2407 34.224 16.2407 31.776C16.2407 26.592 15.9047 26.208 13.2647 26.208C11.1047 26.208 10.5767 26.592 10.5767 27.648C10.5767 30.576 12.4967 34.176 12.4967 35.424C12.4967 35.76 12.3527 36 12.0167 36C11.3927 36 8.17669 35.664 6.68869 35.664ZM8.84869 16.56C8.84869 25.344 9.95269 25.728 13.2167 25.728C15.2807 25.728 15.5687 25.2 15.5687 24.336C15.5687 22.752 15.0407 20.448 13.8887 15.984C12.4967 10.56 12.0647 9.168 10.9127 9.168C9.52069 9.168 8.84869 11.808 8.84869 16.56ZM44.4009 33.648C44.4969 34.944 44.9289 35.472 45.5529 35.472C45.6969 35.472 46.4169 35.424 46.6089 35.424C46.8489 35.424 46.9929 35.568 46.9929 35.712C46.9929 35.856 46.8489 36 46.6089 36C44.5449 35.952 41.3289 35.904 38.2569 35.904C35.5689 35.904 33.0249 36 30.9609 36C30.7209 36 30.6249 35.856 30.6249 35.712C30.6249 35.568 30.7209 35.424 30.9609 35.424C31.0569 35.424 31.5849 35.52 31.6809 35.52C32.3049 35.52 32.4009 34.464 32.4489 33.6C32.4969 29.472 32.5449 24.912 32.5449 20.784C32.5449 17.76 32.5449 14.928 32.4489 12.72C32.3529 10.752 32.2089 10.368 31.3929 10.368C30.9609 10.368 30.7209 10.416 30.5289 10.416C30.2409 10.416 30.1929 10.272 30.1929 10.128C30.1929 9.984 30.2409 9.84 30.5289 9.84C32.1609 9.84 33.8409 9.936 35.8569 9.984C37.2009 9.984 38.8329 9.84 40.3689 9.84C42.6249 9.84 43.1529 10.416 43.1529 12.912C43.1529 14.448 42.8169 16.176 42.8169 18.528C42.8169 18.816 43.1049 18.96 43.3929 18.96C43.6809 18.96 43.9689 18.816 43.9689 18.528C43.9689 11.568 46.1769 8.928 51.8889 8.928C57.6489 8.928 59.5689 11.712 59.5689 18.144C59.5689 24.384 59.2329 29.376 59.2329 32.688C59.2329 34.656 59.3769 35.472 60.3849 35.472C60.5769 35.472 60.8169 35.424 60.9129 35.424C61.1529 35.424 61.2489 35.568 61.2489 35.712C61.2489 35.856 61.1529 36 60.9129 36C59.0889 35.952 57.0729 35.808 54.7689 35.808C53.0889 35.808 51.3129 36 49.4409 36C47.6649 36 47.0889 34.8 47.0889 29.52C47.0889 25.344 47.5209 20.544 47.5209 17.568C47.5209 16.512 47.2809 15.456 46.3209 15.456C45.3609 15.456 44.7849 15.984 44.4489 19.968C44.2569 22.128 44.2089 24.336 44.2089 26.496C44.2089 28.896 44.2569 31.248 44.4009 33.648ZM68.2101 0.767999C72.1461 0.767999 75.6021 2.112 75.6021 5.376C75.6021 7.968 73.6821 8.928 68.2101 8.976C62.7381 9.024 60.8181 7.968 60.8181 5.376C60.8181 2.16 64.2741 0.767999 68.2101 0.767999ZM60.3861 9.84C62.7861 9.84 65.0901 10.128 67.9701 10.128C69.8901 10.128 71.7141 9.84 73.5861 9.84C74.4021 9.84 74.6421 10.224 74.6421 11.136C74.6421 12.096 74.3061 19.296 74.3061 23.328C74.3061 25.056 74.3061 29.52 74.3541 32.4C74.4021 34.8 74.5461 35.472 75.2181 35.472C75.4581 35.472 75.6501 35.376 75.8421 35.376C76.0821 35.376 76.1781 35.52 76.1781 35.664C76.1781 35.856 76.0821 36 75.8421 36C74.5461 36 70.8021 35.808 68.2101 35.808C65.5701 35.808 63.3141 36 60.9141 36C60.6741 36 60.5301 35.904 60.5301 35.664C60.5301 35.472 60.6741 35.376 60.9141 35.376C61.1061 35.376 61.3461 35.472 61.6341 35.472C62.1621 35.472 62.2101 34.608 62.2581 33.552C62.4021 29.376 62.5461 24.768 62.5461 20.208C62.5461 17.616 62.4981 14.832 62.4021 12.576C62.3061 10.752 62.0661 10.368 61.3461 10.368C60.8661 10.368 60.5781 10.416 60.3861 10.416C60.1941 10.416 60.1461 10.272 60.1461 10.128C60.1461 9.984 60.1941 9.84 60.3861 9.84ZM119.164 32.688C119.164 34.656 119.26 35.472 120.268 35.472C120.46 35.472 120.7 35.424 120.796 35.424C121.036 35.424 121.132 35.568 121.132 35.712C121.132 35.856 121.036 36 120.796 36C119.02 36 117.148 35.808 114.892 35.808C113.212 35.808 111.436 35.952 109.564 36C107.836 36 107.308 34.848 107.308 32.784C107.308 28.416 107.452 23.136 107.308 18.336C107.26 16.464 106.876 15.408 105.964 15.408C105.1 15.408 104.476 15.888 104.38 20.448C104.332 22.608 104.284 24.72 104.284 26.88C104.284 28.752 104.332 30.768 104.38 32.688C104.428 34.704 104.572 35.472 105.58 35.472C106.108 35.472 106.684 35.376 106.972 35.376C107.26 35.376 107.308 35.52 107.308 35.712C107.308 35.904 107.164 36 106.972 36C105.292 36 101.356 35.808 98.8603 35.808C96.4123 35.808 93.1003 36 91.2283 36C91.0843 36 90.9883 35.952 90.9883 35.808C90.9883 35.712 91.0363 35.568 91.2283 35.568C92.0923 35.568 92.1883 34.704 92.2843 32.688C92.3803 30.48 92.4283 28.512 92.4283 26.112C92.4283 23.52 92.3803 20.928 92.2843 18.336C92.1883 15.84 91.9003 15.408 91.0363 15.408C90.0763 15.408 89.5003 15.936 89.3083 20.736C89.2123 22.848 89.2123 24.912 89.2123 26.928C89.2123 28.944 89.2603 30.768 89.3083 32.688C89.4043 34.704 89.5003 35.568 90.4603 35.568C90.6043 35.568 90.6523 35.712 90.6523 35.808C90.6523 35.952 90.5563 36 90.4603 36C89.3563 36 85.2763 35.808 82.6843 35.808C80.3803 35.76 77.3083 36 75.8203 36C75.5803 36 75.4843 35.856 75.4843 35.712C75.4843 35.568 75.5803 35.424 75.8203 35.424C75.9163 35.424 76.3003 35.52 76.5403 35.52C77.1643 35.52 77.2603 34.464 77.3083 33.6C77.3563 29.472 77.4043 24.912 77.4043 20.784C77.4043 17.76 77.4043 14.928 77.3083 12.72C77.2123 10.752 77.0683 10.368 76.2523 10.368C75.8203 10.368 75.5803 10.416 75.3883 10.416C75.1003 10.416 75.0523 10.272 75.0523 10.128C75.0523 9.984 75.1003 9.84 75.3883 9.84C76.9723 9.84 79.4203 10.032 81.0043 10.032C83.0683 10.032 84.8443 9.84 86.6683 9.84C87.8683 9.84 88.1083 10.368 88.1083 11.232C88.1083 13.2 88.0603 15.504 88.0603 18.48C88.0603 18.816 88.2523 18.96 88.4923 18.96C88.7803 18.96 88.9723 18.768 88.9723 18.432C88.9723 10.368 91.9003 8.928 96.3163 8.928C101.26 8.928 103.18 11.664 103.18 18.672C103.18 19.056 103.372 19.248 103.564 19.248C103.756 19.248 103.948 19.056 103.948 18.672C103.948 11.376 106.636 8.928 111.772 8.928C117.484 8.928 119.356 11.76 119.356 18.384C119.356 21.936 119.164 28.8 119.164 32.688ZM135.365 9.408C145.445 9.408 147.317 12.912 147.317 18.144C147.317 21.552 147.125 25.344 147.125 26.544C147.125 27.936 147.125 28.704 148.037 28.704C148.757 28.704 149.045 28.032 149.045 27.264C149.045 26.304 148.757 24.432 148.757 23.616C148.757 23.28 148.901 23.184 149.045 23.184C149.477 23.184 149.573 24 149.573 27.12C149.573 34.176 148.901 36.48 143.381 36.48C137.525 36.48 137.525 32.736 137.525 29.136C137.525 28.704 137.285 28.512 137.045 28.512C136.805 28.512 136.565 28.704 136.565 29.136C136.565 32.448 134.453 36.576 128.165 36.576C123.125 36.576 120.869 33.792 120.869 29.76C120.869 24.672 125.285 23.28 130.469 22.896C135.653 22.512 136.661 19.68 136.661 15.936C136.661 11.568 134.213 10.32 130.133 10.32C129.701 10.32 129.461 10.608 129.461 10.896C129.461 11.184 129.701 11.424 130.133 11.472C133.253 11.808 134.213 14.064 134.213 16.704C134.213 20.976 130.853 22.416 127.493 22.416C124.085 22.416 121.445 21.168 121.445 16.8C121.445 12.576 125.477 9.408 135.365 9.408ZM136.037 21.84C134.933 21.84 132.677 23.52 132.677 26.208C132.677 27.984 133.445 28.512 134.309 28.512C135.893 28.512 137.189 26.64 137.189 23.904C137.189 22.272 136.949 21.84 136.037 21.84ZM164.926 26.304C164.926 33.36 163.486 36.48 158.158 36.48C152.974 36.48 150.478 35.136 150.478 28.368C150.478 26.208 150.574 22.464 150.574 19.248C150.574 16.992 150.622 14.688 150.478 12C150.43 10.848 149.95 10.32 149.278 10.32C148.702 10.32 148.366 10.416 148.318 10.416C148.126 10.416 148.078 10.272 148.078 10.128C148.078 9.984 148.126 9.84 148.318 9.84C153.214 9.84 159.214 7.248 161.95 4.272C162.094 4.128 162.142 4.08 162.286 4.08C162.43 4.08 162.526 4.224 162.526 4.416C162.526 4.944 162.382 6 162.382 8.544C162.382 9.744 162.91 9.888 163.87 9.888C164.206 9.888 165.118 9.84 165.646 9.84C165.886 9.84 165.982 9.984 165.982 10.128C165.982 10.272 165.886 10.416 165.646 10.416C165.022 10.416 164.158 10.368 163.582 10.368C162.574 10.368 162.286 10.896 162.286 11.76C162.286 17.232 162.286 22.848 162.526 26.496C162.67 28.416 163.006 28.704 163.534 28.704C164.206 28.704 164.398 27.984 164.398 27.36C164.398 26.352 163.726 25.152 163.726 24.096C163.726 23.664 163.918 23.424 164.206 23.424C164.686 23.424 164.926 23.952 164.926 26.304ZM172.929 0.767999C176.865 0.767999 180.321 2.112 180.321 5.376C180.321 7.968 178.401 8.928 172.929 8.976C167.457 9.024 165.537 7.968 165.537 5.376C165.537 2.16 168.993 0.767999 172.929 0.767999ZM165.105 9.84C167.505 9.84 169.809 10.128 172.689 10.128C174.609 10.128 176.433 9.84 178.305 9.84C179.121 9.84 179.361 10.224 179.361 11.136C179.361 12.096 179.025 19.296 179.025 23.328C179.025 25.056 179.025 29.52 179.073 32.4C179.121 34.8 179.265 35.472 179.937 35.472C180.177 35.472 180.369 35.376 180.561 35.376C180.801 35.376 180.897 35.52 180.897 35.664C180.897 35.856 180.801 36 180.561 36C179.265 36 175.521 35.808 172.929 35.808C170.289 35.808 168.033 36 165.633 36C165.393 36 165.249 35.904 165.249 35.664C165.249 35.472 165.393 35.376 165.633 35.376C165.825 35.376 166.065 35.472 166.353 35.472C166.881 35.472 166.929 34.608 166.977 33.552C167.121 29.376 167.265 24.768 167.265 20.208C167.265 17.616 167.217 14.832 167.121 12.576C167.025 10.752 166.785 10.368 166.065 10.368C165.585 10.368 165.297 10.416 165.105 10.416C164.913 10.416 164.865 10.272 164.865 10.128C164.865 9.984 164.913 9.84 165.105 9.84ZM192.539 20.304C192.539 26.928 195.563 29.664 200.315 29.664C204.683 29.664 206.363 27.6 206.363 26.208C206.363 25.584 206.027 24.816 206.027 24.576C206.027 24.336 206.123 24.096 206.411 24.096C206.747 24.096 206.891 24.432 206.891 25.008C206.891 31.92 204.299 36.72 195.371 36.72C187.307 36.72 181.019 34.224 181.019 22.704C181.019 12.96 184.715 9.12 195.611 9.12C204.299 9.12 207.275 12.144 207.275 17.616C207.275 21.456 205.547 25.056 201.179 25.056C196.715 25.056 194.843 22.704 194.843 19.488C194.843 15.696 197.339 13.728 199.115 12.48C200.075 11.808 200.699 11.232 200.699 10.704C200.699 10.176 200.315 9.792 198.731 9.792C195.707 9.792 192.539 11.088 192.539 20.304ZM218.577 36C219.921 36 221.025 34.512 221.025 32.736C221.025 30.192 218.961 28.512 216.177 27.504C211.569 25.776 207.825 23.856 207.825 18.432C207.825 13.536 211.233 9.36 220.929 9.36C227.793 9.36 231.345 10.8 231.345 13.92C231.345 16.032 229.665 17.328 226.449 17.328C223.233 17.328 220.833 16.272 220.833 13.824C220.833 12.624 221.073 11.856 221.265 11.28C221.361 10.944 221.457 10.656 221.457 10.416C221.457 10.08 221.313 9.84 220.833 9.84C218.817 9.84 218.097 11.232 218.097 12.72C218.097 14.688 219.249 16.224 224.481 18.432C230.481 20.976 232.257 23.52 232.257 27.696C232.257 33.312 227.841 36.48 219.201 36.48C210.273 36.48 207.921 34.416 207.921 31.632C207.921 29.28 209.745 28.08 213.105 28.08C216.465 28.08 218.625 29.664 218.625 31.824C218.625 33.024 218.337 33.696 218.097 34.224C217.905 34.56 217.761 34.848 217.761 35.28C217.761 35.76 218.049 36 218.577 36ZM243.608 36C244.952 36 246.056 34.512 246.056 32.736C246.056 30.192 243.992 28.512 241.208 27.504C236.6 25.776 232.856 23.856 232.856 18.432C232.856 13.536 236.264 9.36 245.96 9.36C252.824 9.36 256.376 10.8 256.376 13.92C256.376 16.032 254.696 17.328 251.48 17.328C248.264 17.328 245.864 16.272 245.864 13.824C245.864 12.624 246.104 11.856 246.296 11.28C246.392 10.944 246.488 10.656 246.488 10.416C246.488 10.08 246.344 9.84 245.864 9.84C243.848 9.84 243.128 11.232 243.128 12.72C243.128 14.688 244.28 16.224 249.512 18.432C255.512 20.976 257.288 23.52 257.288 27.696C257.288 33.312 252.872 36.48 244.232 36.48C235.304 36.48 232.952 34.416 232.952 31.632C232.952 29.28 234.776 28.08 238.136 28.08C241.496 28.08 243.656 29.664 243.656 31.824C243.656 33.024 243.368 33.696 243.128 34.224C242.936 34.56 242.792 34.848 242.792 35.28C242.792 35.76 243.08 36 243.608 36Z" fill="#F72E1C"/>
</svg>
