<svg width="832" height="208" viewBox="0 0 832 208" fill="none" xmlns="http://www.w3.org/2000/svg">
<rect x="16" y="16" width="64" height="64" rx="2" stroke="#F72E1C" stroke-width="2"/>
<path d="M49.2869 60.88H56.4069V63H39.3269V60.88H46.8869V37.56L39.7269 42.12L38.6469 40.24L47.0469 34.88H49.2869V60.88Z" fill="#1B1D42"/>
<path fill-rule="evenodd" clip-rule="evenodd" d="M93 47V44H91V47H88V49H91V52H93V49H96V47H93Z" fill="#F72E1C"/>
<rect x="104" y="16" width="64" height="64" rx="2" stroke="#F72E1C" stroke-width="2"/>
<path d="M126.358 60.88H145.678V63H123.958V56.8C123.958 52.88 125.198 51.68 130.678 50.16L137.918 48.2C142.278 47 142.918 46.36 142.918 43.24V42.04C142.918 37.96 141.398 36.6 136.958 36.6H132.678C128.198 36.6 126.718 37.96 126.718 41.96V42.2L124.318 41.92V41.68C124.318 36.6 126.598 34.48 132.158 34.48H137.478C143.038 34.48 145.318 36.6 145.318 41.76V43.8C145.318 47.76 144.198 48.88 138.678 50.4L131.438 52.36C127.118 53.56 126.358 54.28 126.358 57.28V60.88Z" fill="#1B1D42"/>
<path fill-rule="evenodd" clip-rule="evenodd" d="M181 47V44H179V47H176V49H179V52H181V49H184V47H181Z" fill="#F72E1C"/>
<rect x="192" y="16" width="64" height="64" rx="2" stroke="#F72E1C" stroke-width="2"/>
<path d="M231.798 48.4C234.718 49.36 235.838 51.28 235.838 55V56.12C235.838 61.28 233.558 63.4 227.998 63.4H221.958C216.398 63.4 214.118 61.28 214.118 56.2V55.96L216.518 55.68V55.92C216.518 59.92 217.998 61.28 222.478 61.28H227.478C231.958 61.28 233.438 59.92 233.438 55.84V54.96C233.438 50.92 231.998 49.64 227.478 49.64H221.598V47.52H226.878C231.518 47.52 232.838 46.48 232.838 42.68V42.04C232.838 37.96 231.318 36.6 226.878 36.6H222.678C218.198 36.6 216.678 37.96 216.678 41.96V42.2L214.318 41.92C214.278 41.84 214.278 41.8 214.278 41.68C214.278 36.6 216.598 34.48 222.158 34.48H227.398C232.958 34.48 235.238 36.6 235.238 41.76V42.64C235.238 45.68 234.278 47.4 231.798 48.4Z" fill="#1B1D42"/>
<path fill-rule="evenodd" clip-rule="evenodd" d="M269 47V44H267V47H264V49H267V52H269V49H272V47H269Z" fill="#F72E1C"/>
<rect x="280" y="16" width="64" height="64" rx="2" stroke="#F72E1C" stroke-width="2"/>
<path d="M324.317 54.6V56.72H319.077V63H316.677V56.72H300.677V54.76L307.557 34.88H310.037L303.277 54.6H316.677V43.4H319.077V54.6H324.317Z" fill="#1B1D42"/>
<path fill-rule="evenodd" clip-rule="evenodd" d="M357 47V44H355V47H352V49H355V52H357V49H360V47H357Z" fill="#F72E1C"/>
<rect x="368" y="16" width="64" height="64" rx="2" stroke="#F72E1C" stroke-width="2"/>
<path d="M403.465 45.76C409.025 45.76 411.305 47.88 411.305 53.04V56.12C411.305 61.28 409.025 63.4 403.465 63.4H397.465C391.905 63.4 389.585 61.28 389.585 56.2C389.585 56.08 389.585 56.04 389.625 55.96L391.985 55.68V55.92C391.985 59.92 393.505 61.28 397.985 61.28H402.945C407.425 61.28 408.905 59.92 408.905 55.84V53.32C408.905 49.24 407.425 47.84 402.945 47.84H398.225C394.305 47.84 392.665 48.96 392.345 51.88L390.025 51.52L391.425 34.88H410.185V37H393.625L392.705 47.76C393.745 46.32 395.505 45.76 398.465 45.76H403.465Z" fill="#1B1D42"/>
<path fill-rule="evenodd" clip-rule="evenodd" d="M445 47V44H443V47H440V49H443V52H445V49H448V47H445Z" fill="#F72E1C"/>
<rect x="456" y="16" width="64" height="64" rx="2" stroke="#F72E1C" stroke-width="2"/>
<path d="M490.995 45C496.555 45 498.835 47.12 498.835 52.32V56.08C498.835 61.28 496.555 63.4 490.995 63.4H484.995C479.435 63.4 477.155 61.28 477.155 56.08V41.76C477.155 36.6 479.435 34.48 484.995 34.48H490.835C496.395 34.48 498.675 36.6 498.675 41.68V41.92L496.275 42.2V41.96C496.275 37.96 494.795 36.6 490.315 36.6H485.515C481.035 36.6 479.555 37.96 479.555 42.04V47.48C480.555 45.72 482.315 45 485.595 45H490.995ZM496.435 55.84V52.56C496.435 48.52 494.955 47.12 490.475 47.12H485.515C481.035 47.12 479.555 48.52 479.555 52.56V55.84C479.555 59.88 481.035 61.28 485.515 61.28H490.475C494.955 61.28 496.435 59.88 496.435 55.84Z" fill="#1B1D42"/>
<path d="M432 130C432 128.895 432.895 128 434 128H496V192H434C432.895 192 432 191.105 432 190V130Z" stroke="#F72E1C" stroke-width="2"/>
<path d="M466.287 172.88H473.407V175H456.327V172.88H463.887V149.56L456.727 154.12L455.647 152.24L464.047 146.88H466.287V172.88Z" fill="#1B1D42"/>
<rect x="496" y="128" width="64" height="64" stroke="#F72E1C" stroke-width="2"/>
<path d="M519.358 172.88H538.678V175H516.958V168.8C516.958 164.88 518.198 163.68 523.678 162.16L530.918 160.2C535.278 159 535.918 158.36 535.918 155.24V154.04C535.918 149.96 534.398 148.6 529.958 148.6H525.678C521.198 148.6 519.718 149.96 519.718 153.96V154.2L517.318 153.92V153.68C517.318 148.6 519.598 146.48 525.158 146.48H530.478C536.038 146.48 538.318 148.6 538.318 153.76V155.8C538.318 159.76 537.198 160.88 531.678 162.4L524.438 164.36C520.118 165.56 519.358 166.28 519.358 169.28V172.88Z" fill="#1B1D42"/>
<rect x="560" y="128" width="64" height="64" stroke="#F72E1C" stroke-width="2"/>
<path d="M599.798 160.4C602.718 161.36 603.838 163.28 603.838 167V168.12C603.838 173.28 601.558 175.4 595.998 175.4H589.958C584.398 175.4 582.118 173.28 582.118 168.2V167.96L584.518 167.68V167.92C584.518 171.92 585.998 173.28 590.478 173.28H595.478C599.958 173.28 601.438 171.92 601.438 167.84V166.96C601.438 162.92 599.998 161.64 595.478 161.64H589.598V159.52H594.878C599.518 159.52 600.838 158.48 600.838 154.68V154.04C600.838 149.96 599.318 148.6 594.878 148.6H590.678C586.198 148.6 584.678 149.96 584.678 153.96V154.2L582.318 153.92C582.278 153.84 582.278 153.8 582.278 153.68C582.278 148.6 584.598 146.48 590.158 146.48H595.398C600.958 146.48 603.238 148.6 603.238 153.76V154.64C603.238 157.68 602.278 159.4 599.798 160.4Z" fill="#1B1D42"/>
<rect x="624" y="128" width="64" height="64" stroke="#F72E1C" stroke-width="2"/>
<path d="M668.317 166.6V168.72H663.077V175H660.677V168.72H644.677V166.76L651.557 146.88H654.037L647.277 166.6H660.677V155.4H663.077V166.6H668.317Z" fill="#1B1D42"/>
<rect x="688" y="128" width="64" height="64" stroke="#F72E1C" stroke-width="2"/>
<path d="M723.465 157.76C729.025 157.76 731.305 159.88 731.305 165.04V168.12C731.305 173.28 729.025 175.4 723.465 175.4H717.465C711.905 175.4 709.585 173.28 709.585 168.2C709.585 168.08 709.585 168.04 709.625 167.96L711.985 167.68V167.92C711.985 171.92 713.505 173.28 717.985 173.28H722.945C727.425 173.28 728.905 171.92 728.905 167.84V165.32C728.905 161.24 727.425 159.84 722.945 159.84H718.225C714.305 159.84 712.665 160.96 712.345 163.88L710.025 163.52L711.425 146.88H730.185V149H713.625L712.705 159.76C713.745 158.32 715.505 157.76 718.465 157.76H723.465Z" fill="#1B1D42"/>
<path d="M752 128H814C815.105 128 816 128.895 816 130V190C816 191.105 815.105 192 814 192H752V128Z" stroke="#F72E1C" stroke-width="2"/>
<path d="M786.995 157C792.555 157 794.835 159.12 794.835 164.32V168.08C794.835 173.28 792.555 175.4 786.995 175.4H780.995C775.435 175.4 773.155 173.28 773.155 168.08V153.76C773.155 148.6 775.435 146.48 780.995 146.48H786.835C792.395 146.48 794.675 148.6 794.675 153.68V153.92L792.275 154.2V153.96C792.275 149.96 790.795 148.6 786.315 148.6H781.515C777.035 148.6 775.555 149.96 775.555 154.04V159.48C776.555 157.72 778.315 157 781.595 157H786.995ZM792.435 167.84V164.56C792.435 160.52 790.955 159.12 786.475 159.12H781.515C777.035 159.12 775.555 160.52 775.555 164.56V167.84C775.555 171.88 777.035 173.28 781.515 173.28H786.475C790.955 173.28 792.435 171.88 792.435 167.84Z" fill="#1B1D42"/>
<path d="M528.5 48H542.5C543.605 48 544.5 48.8954 544.5 50V102C544.5 103.105 543.605 104 542.5 104H402C400.895 104 400 104.895 400 106V158C400 159.105 400.895 160 402 160H415.5" stroke="#F72E1C" stroke-width="2"/>
<path d="M411 165L416 160L411 155" stroke="#F72E1C" stroke-width="2" stroke-linejoin="bevel"/>
</svg>
