<svg fill="none" height="192" viewBox="0 0 260 192" width="260" xmlns="http://www.w3.org/2000/svg" xmlns:xlink="http://www.w3.org/1999/xlink"><clipPath id="a"><path d="m0 0h260v192h-260z"/></clipPath><g clip-path="url(#a)"><g stroke="#f72e1c" stroke-width="2"><rect height="64" rx="2" width="64" x="-48" y="8"/><rect height="64" rx="2" width="64" x="40" y="8"/><path d="m85 121c0-1.105.8954-2 2-2h62v64h-62c-1.1046 0-2-.895-2-2z"/><path d="m149 119h64v64h-64z"/><path d="m213 119h64v64h-64z"/><rect height="64" rx="2" width="64" x="128" y="8"/></g><path clip-rule="evenodd" d="m117 39v-3h-2v3h-3v2h3v3h2v-3h3v-2z" fill="#f72e1c" fill-rule="evenodd"/><path clip-rule="evenodd" d="m29 39v-3h-2v3h-3v2h3v3h2v-3h3v-2z" fill="#f72e1c" fill-rule="evenodd"/><path d="m200 40h14c1.105 0 2 .8954 2 2v52c0 1.1046-.895 2-2 2h-151.5c-1.1046 0-2 .8954-2 2v52c0 1.105.8954 2 2 2h13.5" stroke="#f72e1c" stroke-width="2"/><path d="m72 157 5-5-5-5" stroke="#f72e1c" stroke-linejoin="bevel" stroke-width="2"/><path d="m119.287 163.88h7.12v2.12h-17.08v-2.12h7.56v-23.32l-7.16 4.56-1.08-1.88 8.4-5.36h2.24z" fill="#1b1d42"/><path d="m172.358 163.88h19.32v2.12h-21.72v-6.2c0-3.92 1.24-5.12 6.72-6.64l7.24-1.96c4.36-1.2 5-1.84 5-4.96v-1.2c0-4.08-1.52-5.44-5.96-5.44h-4.28c-4.48 0-5.96 1.36-5.96 5.36v.24l-2.4-.28v-.24c0-5.08 2.28-7.2 7.84-7.2h5.32c5.56 0 7.84 2.12 7.84 7.28v2.04c0 3.96-1.12 5.08-6.64 6.6l-7.24 1.96c-4.32 1.2-5.08 1.92-5.08 4.92z" fill="#1b1d42"/><path d="m167.798 40.4c2.92.96 4.04 2.88 4.04 6.6v1.12c0 5.16-2.28 7.28-7.84 7.28h-6.04c-5.56 0-7.84-2.12-7.84-7.2v-.24l2.4-.28v.24c0 4 1.48 5.36 5.96 5.36h5c4.48 0 5.96-1.36 5.96-5.44v-.88c0-4.04-1.44-5.32-5.96-5.32h-5.88v-2.12h5.28c4.64 0 5.96-1.04 5.96-4.84v-.64c0-4.08-1.52-5.44-5.96-5.44h-4.2c-4.48 0-6 1.36-6 5.36v.24l-2.36-.28c-.04-.08-.04-.12-.04-.24 0-5.08 2.32-7.2 7.88-7.2h5.24c5.56 0 7.84 2.12 7.84 7.28v.88c0 3.04-.96 4.76-3.44 5.76z" fill="#1b1d42"/><path d="m62.3581 52.88h19.32v2.12h-21.72v-6.2c0-3.92 1.24-5.12 6.72-6.64l7.24-1.96c4.36-1.2 5-1.84 5-4.96v-1.2c0-4.08-1.52-5.44-5.96-5.44h-4.28c-4.48 0-5.96 1.36-5.96 5.36v.24l-2.4-.28v-.24c0-5.08 2.28-7.2 7.84-7.2h5.32c5.56 0 7.84 2.12 7.84 7.28v2.04c0 3.96-1.12 5.08-6.64 6.6l-7.24 1.96c-4.32 1.2-5.08 1.92-5.08 4.92z" fill="#1b1d42"/><path d="m252.798 151.4c2.92.96 4.04 2.88 4.04 6.6v1.12c0 5.16-2.28 7.28-7.84 7.28h-6.04c-5.56 0-7.84-2.12-7.84-7.2v-.24l2.4-.28v.24c0 4 1.48 5.36 5.96 5.36h5c4.48 0 5.96-1.36 5.96-5.44v-.88c0-4.04-1.44-5.32-5.96-5.32h-5.88v-2.12h5.28c4.64 0 5.96-1.04 5.96-4.84v-.64c0-4.08-1.52-5.44-5.96-5.44h-4.2c-4.48 0-6 1.36-6 5.36v.24l-2.36-.28c-.04-.08-.04-.12-.04-.24 0-5.08 2.32-7.2 7.88-7.2h5.24c5.56 0 7.84 2.12 7.84 7.28v.88c0 3.04-.96 4.76-3.44 5.76z" fill="#1b1d42"/></g></svg>