<svg fill="none" height="40" viewBox="0 0 80 40" width="80" xmlns="http://www.w3.org/2000/svg"><g fill="#1b1d44"><path clip-rule="evenodd" d="m11 21.5h1.5v-10.5h10.5v-1.5h-10.5c-.825 0-1.5.675-1.5 1.5zm12.975-7.05 4.575 4.575c.3.3.45.675.45 1.05v8.925c0 .825-.675 1.5-1.5 1.5h-10.5c-.825 0-1.5-.675-1.5-1.5v-13.5c0-.825.675-1.5 1.5-1.5h6c.375 0 .75.15.975.45zm3.45 5.55-4.425-4.5v4.5zm-10.425-4.5v13.5h10.5v-7.5h-4.5c-.825 0-1.5-.675-1.5-1.5v-4.5z" fill-rule="evenodd"/><path d="m57.75 26-6.75-6.75 1.0605-1.0605 5.6895 5.6887 10.1895-10.1887 1.0605 1.0605z"/></g></svg>