<svg fill="none" height="40" viewBox="0 0 80 40" width="80" xmlns="http://www.w3.org/2000/svg"><g fill="#1b1d44"><path d="m18.1271 12.0602c-.3439 1.4679-.3906 2.9898-.1376 4.476.253 1.4863.8007 2.907 1.6109 4.1784.8101 1.2715 1.8664 2.3681 3.1067 3.2253 1.2402.8572 2.6393 1.4578 4.1151 1.7662-.7759.8027-1.7052 1.4413-2.7326 1.878-1.0275.4367-2.1322.6625-3.2486.664-.1039 0-.2086.0038-.3133 0-1.9435-.0687-3.8016-.8161-5.2514-2.1122s-2.3999-3.0591-2.6852-4.9828.1123-3.8865 1.1236-5.5476 2.5725-2.9155 4.4124-3.5453zm1.1081-1.8102c-.0439.0001-.0877.004-.131.0117-2.3881.4242-4.5349 1.7171-6.0267 3.6296-1.4919 1.9125-2.2233 4.3094-2.0534 6.729.17 2.4196 1.2292 4.6908 2.9737 6.376 1.7445 1.6853 4.0509 2.6654 6.4749 2.7517.1231.0045.2461 0 .3682 0 1.5741.0008 3.1253-.3774 4.5223-1.1026 1.3971-.7253 2.599-1.7763 3.5042-3.0641.0734-.111.1162-.2394.1242-.3722.0079-.1328-.0192-.2653-.0788-.3843s-.1494-.2201-.2605-.2933-.2396-.1158-.3724-.1235c-1.4984-.1315-2.9464-.6057-4.2323-1.3861-1.2858-.7803-2.375-1.8459-3.1833-3.1143-.8084-1.2685-1.3142-2.7058-1.4784-4.2009-.1643-1.4952.0175-3.008.5312-4.4217.0437-.1131.0598-.235.0468-.3556-.0129-.1205-.0545-.2363-.1212-.3375-.0667-.1013-.1566-.1851-.2623-.2446s-.224-.0928-.3452-.0973z"/><path clip-rule="evenodd" d="m59.25 9.50366h1.5v3.75004h-1.5zm-6.1443 2.54514-1.0605 1.0606 2.6294 2.6294 1.0605-1.0606zm6.8943 4.9549c.5933 0 1.1734.1759 1.6667.5056.4934.3296.8779.7981 1.1049 1.3463.2271.5482.2865 1.1514.1708 1.7333-.1158.582-.4015 1.1165-.8211 1.5361-.4195.4195-.9541.7053-1.536.821-.582.1158-1.1852.0564-1.7333-.1707-.5482-.2271-1.0168-.6116-1.3464-1.1049-.3297-.4934-.5056-1.0734-.5056-1.6667.0009-.7954.3173-1.558.8797-2.1204s1.3249-.8787 2.1203-.8796zm0-1.5c-.89 0-1.76.2639-2.5001.7583-.74.4945-1.3168 1.1973-1.6574 2.0196s-.4297 1.7271-.256 2.6c.1736.8729.6022 1.6747 1.2315 2.304.6294.6294 1.4312 1.058 2.3041 1.2316s1.7777.0845 2.6-.2561c.8222-.3406 1.525-.9174 2.0195-1.6574s.7584-1.61.7584-2.5c0-1.1935-.4741-2.3381-1.318-3.182s-1.9885-1.318-3.182-1.318zm-10.5 3.75h3.75v1.5h-3.75zm5.1745 5.0149-2.6293 2.6293 1.0605 1.0606 2.6294-2.6294zm4.5755 2.4851h1.5v3.75h-1.5zm6.0755-2.4852-1.0606 1.0606 2.6294 2.6294 1.0605-1.0606zm1.4245-5.0148h3.75v1.5h-3.75zm.1443-7.2049-2.6294 2.6294 1.0606 1.0606 2.6293-2.6294z" fill-rule="evenodd"/></g></svg>