<svg width="24" height="24" viewBox="0 0 24 24" fill="none" xmlns="http://www.w3.org/2000/svg">
<path d="M10.1271 4.0602C9.78324 5.52812 9.73646 7.04998 9.98948 8.53625C10.2425 10.0225 10.7902 11.4432 11.6004 12.7146C12.4105 13.9861 13.4668 15.0827 14.7071 15.9399C15.9473 16.7971 17.3464 17.3977 18.8222 17.7061C18.0463 18.5088 17.117 19.1474 16.0896 19.5841C15.0621 20.0208 13.9574 20.2466 12.841 20.2481C12.7371 20.2481 12.6324 20.2519 12.5277 20.2481C10.5842 20.1794 8.72614 19.432 7.2763 18.1359C5.82646 16.8398 4.8764 15.0768 4.59112 13.1531C4.30585 11.2294 4.70339 9.2666 5.71469 7.60551C6.72599 5.94442 8.28717 4.69003 10.1271 4.0602V4.0602ZM11.2352 2.25C11.1913 2.25007 11.1475 2.25398 11.1042 2.2617C8.71607 2.68589 6.56931 3.97876 5.07747 5.89129C3.58562 7.80382 2.85422 10.2007 3.02414 12.6203C3.19406 15.0399 4.25328 17.3111 5.99779 18.9963C7.74229 20.6816 10.0487 21.6617 12.4727 21.748C12.5958 21.7525 12.7188 21.748 12.8409 21.748C14.415 21.7488 15.9662 21.3706 17.3632 20.6454C18.7603 19.9201 19.9622 18.8691 20.8674 17.5813C20.9408 17.4703 20.9836 17.3419 20.9916 17.2091C20.9995 17.0763 20.9724 16.9438 20.9128 16.8248C20.8532 16.7058 20.7634 16.6047 20.6523 16.5315C20.5412 16.4583 20.4127 16.4157 20.2799 16.408C18.7815 16.2765 17.3335 15.8023 16.0476 15.0219C14.7618 14.2416 13.6726 13.176 12.8643 11.9076C12.0559 10.6391 11.5501 9.20177 11.3859 7.70665C11.2216 6.21153 11.4034 4.69867 11.9171 3.285C11.9608 3.1719 11.9769 3.04999 11.9639 2.92942C11.951 2.80886 11.9094 2.69314 11.8427 2.59188C11.776 2.49063 11.6861 2.40678 11.5804 2.34731C11.4747 2.28784 11.3564 2.25448 11.2352 2.25V2.25Z" fill="#1B1D44"/>
</svg>
