<svg width="24" height="24" viewBox="0 0 24 24" fill="none" xmlns="http://www.w3.org/2000/svg">
<path fill-rule="evenodd" clip-rule="evenodd" d="M5.085 7.50027H9V9.00027H3V3.00027H4.5V5.76027C5.7817 4.21728 7.50811 3.10716 9.44384 2.58128C11.3796 2.05539 13.4304 2.13934 15.3166 2.82168C17.2029 3.50401 18.8328 4.75152 19.9841 6.3941C21.1354 8.03669 21.7521 9.99439 21.75 12.0003H20.25C20.2501 10.2217 19.6755 8.49074 18.6117 7.06537C17.5479 5.64 16.052 4.59657 14.3469 4.09061C12.6418 3.58465 10.8189 3.64327 9.14986 4.25771C7.48081 4.87215 6.05501 6.00952 5.085 7.50027ZM18.915 16.5001H15V15.0001H21V21.0001H19.5V18.2401C18.2183 19.7831 16.4919 20.8932 14.5562 21.4191C12.6204 21.945 10.5696 21.8611 8.68337 21.1787C6.79711 20.4964 5.1672 19.2489 4.0159 17.6063C2.8646 15.9637 2.24794 14.006 2.25001 12.0001H3.75001C3.74989 13.7787 4.32455 15.5097 5.38832 16.935C6.45209 18.3604 7.948 19.4038 9.65308 19.9098C11.3582 20.4157 13.1811 20.3571 14.8501 19.7427C16.5192 19.1282 17.945 17.9909 18.915 16.5001Z" fill="#1B1D44"/>
</svg>
