<svg width="32" height="32" viewBox="0 0 32 32" fill="none" xmlns="http://www.w3.org/2000/svg">
<path d="M16.0006 32C12.3758 32 8.95105 31.3066 6.35774 30.0528C3.51794 28.6788 1.95719 26.7593 1.95719 24.648C1.95719 23.5236 2.4002 22.4523 3.24192 21.492C3.36864 21.3456 3.43626 21.1558 3.43121 20.9608C3.42615 20.7658 3.34879 20.5799 3.21465 20.4404C1.12797 18.2425 0 15.573 0 12.7545C0 9.29457 1.70388 6.05886 4.7879 3.64479C7.79468 1.29428 11.7761 0 16.0006 0C19.6253 0 23.0501 0.693366 25.6423 1.9472C28.4821 3.32122 30.0439 5.24069 30.0439 7.35199C30.0439 8.4764 29.6009 9.54765 28.7581 10.508C28.6321 10.6548 28.565 10.8444 28.57 11.0392C28.5751 11.234 28.6519 11.4197 28.7853 11.5596C30.872 13.7552 32 16.427 32 19.2455C32 22.7054 30.2961 25.9411 27.2132 28.3552C24.2065 30.7057 20.2194 32 16.0006 32ZM5.825 22.6084C5.69284 22.522 5.53542 22.4847 5.37935 22.5028C5.22328 22.5209 5.07815 22.5933 4.96851 22.7077C4.35966 23.3341 4.03252 23.9962 4.03252 24.648C4.03252 25.8857 5.20592 27.1568 7.25058 28.146C9.57013 29.2693 12.678 29.8875 15.9972 29.8875C23.6748 29.8875 29.9213 25.1137 29.9213 19.2455C29.9213 16.7448 28.7853 14.4428 26.8918 12.6239C26.788 12.5258 26.6567 12.4631 26.5162 12.4445C26.3757 12.4258 26.2331 12.4522 26.108 12.5199C25.9565 12.6008 25.8002 12.6801 25.6389 12.7579C23.0467 14.0141 19.6185 14.7051 15.9972 14.7051C13.9968 14.7051 12.101 14.3585 10.6583 13.7252C8.33765 12.7117 7.9912 11.325 7.9912 10.5969C7.9912 9.86891 8.33765 8.4868 10.6606 7.46986C12.1044 6.83774 14.0002 6.48991 15.9994 6.48991C19.748 6.48991 23.317 7.51262 26.1739 9.39164C26.3061 9.47833 26.4638 9.51579 26.6201 9.49767C26.7764 9.47956 26.9218 9.40698 27.0315 9.29226C27.6403 8.66592 27.9663 8.00376 27.9663 7.35199C27.9663 6.11896 26.7941 4.84316 24.7494 3.85396C22.4299 2.73071 19.322 2.11246 16.0028 2.11246C8.32516 2.11246 2.07873 6.88628 2.07873 12.7545C2.07873 15.2552 3.21465 17.5572 5.1071 19.375C5.21088 19.4734 5.3423 19.5365 5.48301 19.5554C5.62372 19.5742 5.76671 19.5479 5.89202 19.4801C6.04347 19.4031 6.19947 19.3237 6.36002 19.2421C8.95332 17.9859 12.3804 17.2949 16.0028 17.2949C18.0021 17.2949 19.899 17.6415 21.3417 18.2748C23.6646 19.2918 24.0111 20.6704 24.0111 21.4019C24.0111 22.1334 23.6646 23.5132 21.3417 24.5301C19.8979 25.1623 18.0009 25.5101 16.0028 25.5101C12.2452 25.5101 8.68184 24.4874 5.825 22.6084ZM8.00596 20.8114C7.94366 20.835 7.88953 20.8767 7.85023 20.9313C7.81093 20.9859 7.78819 21.051 7.78481 21.1185C7.78143 21.1861 7.79756 21.2532 7.8312 21.3116C7.86485 21.3699 7.91454 21.417 7.97416 21.447C10.246 22.6754 13.0142 23.3976 16.0006 23.3976C17.7044 23.3976 19.347 23.103 20.5193 22.5887C21.4916 22.1634 21.9335 21.6758 21.9335 21.4007C21.9335 21.1257 21.4916 20.6392 20.5193 20.2139C19.347 19.7008 17.6999 19.405 16.0006 19.405C13.0267 19.4073 10.2233 19.9031 8.00596 20.8114V20.8114ZM16.0006 8.60236C14.2967 8.60236 12.6541 8.89704 11.4807 9.41129C10.5095 9.83655 10.0665 10.3242 10.0665 10.5981C10.0665 10.872 10.5095 11.3608 11.4807 11.7861C12.6541 12.2992 14.3012 12.595 16.0006 12.595C18.9744 12.595 21.7756 12.0992 23.9952 11.1898C24.0572 11.1659 24.111 11.1242 24.15 11.0698C24.1891 11.0153 24.2116 10.9505 24.215 10.8831C24.2184 10.8158 24.2024 10.749 24.169 10.6907C24.1356 10.6325 24.0863 10.5855 24.027 10.5553C21.7563 9.32462 18.9869 8.60236 16.0006 8.60236Z" fill="#F72E1C"/>
</svg>
